<mxfile host="Electron" modified="2024-07-29T14:02:53.154Z" agent="Mozilla/5.0 (X11; Linux x86_64) AppleWebKit/537.36 (KHTML, like Gecko) draw.io/24.6.4 Chrome/124.0.6367.243 Electron/30.3.1 Safari/537.36" etag="n0rU4F6CM3OxsXYshTFH" version="24.6.4" type="device" pages="4">
  <diagram name="Spotui-py" id="Fpngk3a1_skhaMQMCUg6">
    <mxGraphModel dx="2950" dy="1263" grid="1" gridSize="10" guides="1" tooltips="1" connect="1" arrows="1" fold="1" page="1" pageScale="1" pageWidth="1200" pageHeight="1920" math="0" shadow="0">
      <root>
        <mxCell id="0" />
        <mxCell id="1" parent="0" />
        <mxCell id="TO6yi6P6G9DKyxrw3OD8-92" value="" style="edgeStyle=orthogonalEdgeStyle;shape=flexArrow;rounded=0;orthogonalLoop=1;jettySize=auto;html=1;" parent="1" source="TO6yi6P6G9DKyxrw3OD8-45" target="TO6yi6P6G9DKyxrw3OD8-62" edge="1">
          <mxGeometry relative="1" as="geometry" />
        </mxCell>
        <mxCell id="TO6yi6P6G9DKyxrw3OD8-45" value="Message Queue" style="swimlane;horizontal=0;whiteSpace=wrap;html=1;" parent="1" vertex="1">
          <mxGeometry x="500" y="30" width="200" height="90" as="geometry">
            <mxRectangle x="500" y="60" width="40" height="120" as="alternateBounds" />
          </mxGeometry>
        </mxCell>
        <mxCell id="TO6yi6P6G9DKyxrw3OD8-50" value="Send Next Message" style="text;html=1;align=center;verticalAlign=middle;whiteSpace=wrap;rounded=0;" parent="1" vertex="1">
          <mxGeometry x="610" y="125" width="60" height="30" as="geometry" />
        </mxCell>
        <mxCell id="TO6yi6P6G9DKyxrw3OD8-51" value="H1" style="rhombus;whiteSpace=wrap;html=1;" parent="1" vertex="1">
          <mxGeometry x="800" y="75" width="80" height="80" as="geometry" />
        </mxCell>
        <mxCell id="TO6yi6P6G9DKyxrw3OD8-53" value="H3" style="rhombus;whiteSpace=wrap;html=1;" parent="1" vertex="1">
          <mxGeometry x="800" y="320" width="80" height="80" as="geometry" />
        </mxCell>
        <mxCell id="TO6yi6P6G9DKyxrw3OD8-54" value="H2" style="rhombus;whiteSpace=wrap;html=1;" parent="1" vertex="1">
          <mxGeometry x="800" y="200" width="80" height="80" as="geometry" />
        </mxCell>
        <mxCell id="TO6yi6P6G9DKyxrw3OD8-58" value="" style="shape=cylinder3;whiteSpace=wrap;html=1;boundedLbl=1;backgroundOutline=1;size=15;" parent="1" vertex="1">
          <mxGeometry x="1120" y="70" width="60" height="80" as="geometry" />
        </mxCell>
        <mxCell id="TO6yi6P6G9DKyxrw3OD8-59" value="" style="ellipse;shape=cloud;whiteSpace=wrap;html=1;" parent="1" vertex="1">
          <mxGeometry x="960" y="90" width="80" height="50" as="geometry" />
        </mxCell>
        <mxCell id="TO6yi6P6G9DKyxrw3OD8-60" value="" style="endArrow=classic;html=1;rounded=0;" parent="1" edge="1">
          <mxGeometry width="50" height="50" relative="1" as="geometry">
            <mxPoint x="890" y="109.5" as="sourcePoint" />
            <mxPoint x="960" y="109.5" as="targetPoint" />
          </mxGeometry>
        </mxCell>
        <mxCell id="TO6yi6P6G9DKyxrw3OD8-61" value="" style="endArrow=classic;html=1;rounded=0;entryX=0;entryY=0.5;entryDx=0;entryDy=0;entryPerimeter=0;" parent="1" edge="1">
          <mxGeometry width="50" height="50" relative="1" as="geometry">
            <mxPoint x="1050" y="109.5" as="sourcePoint" />
            <mxPoint x="1110" y="109.5" as="targetPoint" />
            <Array as="points">
              <mxPoint x="1080" y="109.5" />
            </Array>
          </mxGeometry>
        </mxCell>
        <mxCell id="TO6yi6P6G9DKyxrw3OD8-90" value="" style="edgeStyle=orthogonalEdgeStyle;shape=flexArrow;rounded=0;orthogonalLoop=1;jettySize=auto;html=1;" parent="1" source="TO6yi6P6G9DKyxrw3OD8-62" target="TO6yi6P6G9DKyxrw3OD8-87" edge="1">
          <mxGeometry relative="1" as="geometry" />
        </mxCell>
        <mxCell id="TO6yi6P6G9DKyxrw3OD8-62" value="T2&lt;div&gt;Message Dispatcher&lt;/div&gt;" style="rounded=1;whiteSpace=wrap;html=1;" parent="1" vertex="1">
          <mxGeometry x="580" y="210" width="120" height="60" as="geometry" />
        </mxCell>
        <mxCell id="TO6yi6P6G9DKyxrw3OD8-63" value="T1&lt;div&gt;Event Handler&lt;/div&gt;" style="rounded=1;whiteSpace=wrap;html=1;" parent="1" vertex="1">
          <mxGeometry x="270" y="210" width="120" height="60" as="geometry" />
        </mxCell>
        <mxCell id="TO6yi6P6G9DKyxrw3OD8-64" value="Keybinds" style="swimlane;fontStyle=0;childLayout=stackLayout;horizontal=1;startSize=30;horizontalStack=0;resizeParent=1;resizeParentMax=0;resizeLast=0;collapsible=1;marginBottom=0;whiteSpace=wrap;html=1;" parent="1" vertex="1">
          <mxGeometry x="40" y="180" width="140" height="120" as="geometry" />
        </mxCell>
        <mxCell id="TO6yi6P6G9DKyxrw3OD8-65" value="S - Toggle Search Event" style="text;strokeColor=none;fillColor=none;align=left;verticalAlign=middle;spacingLeft=4;spacingRight=4;overflow=hidden;points=[[0,0.5],[1,0.5]];portConstraint=eastwest;rotatable=0;whiteSpace=wrap;html=1;" parent="TO6yi6P6G9DKyxrw3OD8-64" vertex="1">
          <mxGeometry y="30" width="140" height="30" as="geometry" />
        </mxCell>
        <mxCell id="TO6yi6P6G9DKyxrw3OD8-66" value="P - Play / Pause Track Event" style="text;strokeColor=none;fillColor=none;align=left;verticalAlign=middle;spacingLeft=4;spacingRight=4;overflow=hidden;points=[[0,0.5],[1,0.5]];portConstraint=eastwest;rotatable=0;whiteSpace=wrap;html=1;" parent="TO6yi6P6G9DKyxrw3OD8-64" vertex="1">
          <mxGeometry y="60" width="140" height="30" as="geometry" />
        </mxCell>
        <mxCell id="TO6yi6P6G9DKyxrw3OD8-67" value="C - Traverse Content window" style="text;strokeColor=none;fillColor=none;align=left;verticalAlign=middle;spacingLeft=4;spacingRight=4;overflow=hidden;points=[[0,0.5],[1,0.5]];portConstraint=eastwest;rotatable=0;whiteSpace=wrap;html=1;" parent="TO6yi6P6G9DKyxrw3OD8-64" vertex="1">
          <mxGeometry y="90" width="140" height="30" as="geometry" />
        </mxCell>
        <mxCell id="TO6yi6P6G9DKyxrw3OD8-68" value="" style="endArrow=classic;html=1;rounded=0;" parent="1" edge="1">
          <mxGeometry width="50" height="50" relative="1" as="geometry">
            <mxPoint x="180" y="240" as="sourcePoint" />
            <mxPoint x="270" y="240" as="targetPoint" />
          </mxGeometry>
        </mxCell>
        <mxCell id="TO6yi6P6G9DKyxrw3OD8-69" value="Key Event msg" style="text;html=1;align=center;verticalAlign=middle;whiteSpace=wrap;rounded=0;" parent="1" vertex="1">
          <mxGeometry x="190" y="200" width="60" height="30" as="geometry" />
        </mxCell>
        <mxCell id="TO6yi6P6G9DKyxrw3OD8-70" value="Handle Msg" style="text;html=1;align=center;verticalAlign=middle;whiteSpace=wrap;rounded=0;" parent="1" vertex="1">
          <mxGeometry x="700" y="140" width="60" height="30" as="geometry" />
        </mxCell>
        <mxCell id="TO6yi6P6G9DKyxrw3OD8-71" value="" style="endArrow=classic;html=1;rounded=0;" parent="1" edge="1">
          <mxGeometry width="50" height="50" relative="1" as="geometry">
            <mxPoint x="1110" y="130" as="sourcePoint" />
            <mxPoint x="1050" y="129.5" as="targetPoint" />
          </mxGeometry>
        </mxCell>
        <mxCell id="TO6yi6P6G9DKyxrw3OD8-73" value="" style="endArrow=classic;html=1;rounded=0;" parent="1" edge="1">
          <mxGeometry width="50" height="50" relative="1" as="geometry">
            <mxPoint x="960" y="130" as="sourcePoint" />
            <mxPoint x="890" y="130" as="targetPoint" />
          </mxGeometry>
        </mxCell>
        <mxCell id="TO6yi6P6G9DKyxrw3OD8-74" value="" style="endArrow=classic;html=1;rounded=0;entryX=0;entryY=0.5;entryDx=0;entryDy=0;" parent="1" target="TO6yi6P6G9DKyxrw3OD8-45" edge="1">
          <mxGeometry width="50" height="50" relative="1" as="geometry">
            <mxPoint x="330" y="210" as="sourcePoint" />
            <mxPoint x="380" y="160" as="targetPoint" />
            <Array as="points">
              <mxPoint x="330" y="75" />
            </Array>
          </mxGeometry>
        </mxCell>
        <mxCell id="TO6yi6P6G9DKyxrw3OD8-75" value="Send Message" style="text;html=1;align=center;verticalAlign=middle;whiteSpace=wrap;rounded=0;" parent="1" vertex="1">
          <mxGeometry x="270" y="120" width="60" height="30" as="geometry" />
        </mxCell>
        <mxCell id="TO6yi6P6G9DKyxrw3OD8-77" value="" style="endArrow=classic;startArrow=classic;html=1;rounded=0;entryX=0;entryY=0.5;entryDx=0;entryDy=0;exitX=1;exitY=0.25;exitDx=0;exitDy=0;" parent="1" source="TO6yi6P6G9DKyxrw3OD8-62" target="TO6yi6P6G9DKyxrw3OD8-51" edge="1">
          <mxGeometry width="50" height="50" relative="1" as="geometry">
            <mxPoint x="700" y="240" as="sourcePoint" />
            <mxPoint x="770" y="180" as="targetPoint" />
          </mxGeometry>
        </mxCell>
        <mxCell id="TO6yi6P6G9DKyxrw3OD8-78" value="" style="endArrow=classic;startArrow=classic;html=1;rounded=0;entryX=0;entryY=0.5;entryDx=0;entryDy=0;" parent="1" target="TO6yi6P6G9DKyxrw3OD8-54" edge="1">
          <mxGeometry width="50" height="50" relative="1" as="geometry">
            <mxPoint x="700" y="240" as="sourcePoint" />
            <mxPoint x="750" y="190" as="targetPoint" />
          </mxGeometry>
        </mxCell>
        <mxCell id="TO6yi6P6G9DKyxrw3OD8-79" value="" style="endArrow=classic;startArrow=classic;html=1;rounded=0;entryX=0;entryY=0.5;entryDx=0;entryDy=0;exitX=1;exitY=0.75;exitDx=0;exitDy=0;" parent="1" source="TO6yi6P6G9DKyxrw3OD8-62" target="TO6yi6P6G9DKyxrw3OD8-53" edge="1">
          <mxGeometry width="50" height="50" relative="1" as="geometry">
            <mxPoint x="700" y="240" as="sourcePoint" />
            <mxPoint x="750" y="190" as="targetPoint" />
          </mxGeometry>
        </mxCell>
        <mxCell id="TO6yi6P6G9DKyxrw3OD8-82" value="Send Msg to endpoints play, pause, etc.." style="text;html=1;align=center;verticalAlign=middle;whiteSpace=wrap;rounded=0;" parent="1" vertex="1">
          <mxGeometry x="770" y="40" width="150" height="30" as="geometry" />
        </mxCell>
        <mxCell id="TO6yi6P6G9DKyxrw3OD8-85" value="Request data from Spotify API" style="text;html=1;align=center;verticalAlign=middle;whiteSpace=wrap;rounded=0;direction=south;" parent="1" vertex="1">
          <mxGeometry x="937.5" y="140" width="125" height="60" as="geometry" />
        </mxCell>
        <mxCell id="TO6yi6P6G9DKyxrw3OD8-91" value="" style="edgeStyle=orthogonalEdgeStyle;shape=flexArrow;rounded=0;orthogonalLoop=1;jettySize=auto;html=1;" parent="1" source="TO6yi6P6G9DKyxrw3OD8-87" target="TO6yi6P6G9DKyxrw3OD8-88" edge="1">
          <mxGeometry relative="1" as="geometry" />
        </mxCell>
        <mxCell id="TO6yi6P6G9DKyxrw3OD8-87" value="Model builder" style="rounded=1;whiteSpace=wrap;html=1;" parent="1" vertex="1">
          <mxGeometry x="580" y="360" width="120" height="60" as="geometry" />
        </mxCell>
        <mxCell id="TO6yi6P6G9DKyxrw3OD8-103" value="" style="edgeStyle=orthogonalEdgeStyle;shape=flexArrow;rounded=0;orthogonalLoop=1;jettySize=auto;html=1;" parent="1" source="TO6yi6P6G9DKyxrw3OD8-88" target="TO6yi6P6G9DKyxrw3OD8-102" edge="1">
          <mxGeometry relative="1" as="geometry" />
        </mxCell>
        <mxCell id="TO6yi6P6G9DKyxrw3OD8-88" value="Render Model" style="rounded=1;whiteSpace=wrap;html=1;" parent="1" vertex="1">
          <mxGeometry x="580" y="480" width="120" height="60" as="geometry" />
        </mxCell>
        <mxCell id="TO6yi6P6G9DKyxrw3OD8-93" value="Collected Data is sent to the Builder" style="text;html=1;align=center;verticalAlign=middle;whiteSpace=wrap;rounded=0;" parent="1" vertex="1">
          <mxGeometry x="510" y="300" width="120" height="30" as="geometry" />
        </mxCell>
        <mxCell id="TO6yi6P6G9DKyxrw3OD8-94" value="The Renderer, renders the constructed models" style="text;html=1;align=center;verticalAlign=middle;whiteSpace=wrap;rounded=0;" parent="1" vertex="1">
          <mxGeometry x="670" y="430" width="150" height="30" as="geometry" />
        </mxCell>
        <mxCell id="TO6yi6P6G9DKyxrw3OD8-95" value="State Checker" style="rounded=1;whiteSpace=wrap;html=1;" parent="1" vertex="1">
          <mxGeometry x="270" y="350" width="120" height="60" as="geometry" />
        </mxCell>
        <mxCell id="TO6yi6P6G9DKyxrw3OD8-97" value="Application Variables" style="swimlane;whiteSpace=wrap;html=1;" parent="1" vertex="1">
          <mxGeometry x="230" y="490" width="200" height="200" as="geometry" />
        </mxCell>
        <mxCell id="TO6yi6P6G9DKyxrw3OD8-98" value="Is Playing = ?" style="text;html=1;align=center;verticalAlign=middle;whiteSpace=wrap;rounded=0;" parent="TO6yi6P6G9DKyxrw3OD8-97" vertex="1">
          <mxGeometry x="10" y="40" width="90" height="30" as="geometry" />
        </mxCell>
        <mxCell id="TO6yi6P6G9DKyxrw3OD8-99" value="Context" style="text;html=1;align=center;verticalAlign=middle;whiteSpace=wrap;rounded=0;" parent="TO6yi6P6G9DKyxrw3OD8-97" vertex="1">
          <mxGeometry x="10" y="70" width="60" height="30" as="geometry" />
        </mxCell>
        <mxCell id="TO6yi6P6G9DKyxrw3OD8-100" value="Whats Loaded" style="text;html=1;align=center;verticalAlign=middle;whiteSpace=wrap;rounded=0;" parent="TO6yi6P6G9DKyxrw3OD8-97" vertex="1">
          <mxGeometry x="10" y="110" width="60" height="30" as="geometry" />
        </mxCell>
        <mxCell id="TO6yi6P6G9DKyxrw3OD8-101" value="" style="endArrow=classic;html=1;rounded=0;entryX=0.5;entryY=1;entryDx=0;entryDy=0;exitX=0.5;exitY=0;exitDx=0;exitDy=0;" parent="1" source="TO6yi6P6G9DKyxrw3OD8-97" target="TO6yi6P6G9DKyxrw3OD8-95" edge="1">
          <mxGeometry width="50" height="50" relative="1" as="geometry">
            <mxPoint x="370" y="480" as="sourcePoint" />
            <mxPoint x="420" y="430" as="targetPoint" />
          </mxGeometry>
        </mxCell>
        <mxCell id="TO6yi6P6G9DKyxrw3OD8-102" value="App" style="shape=umlFrame;whiteSpace=wrap;html=1;pointerEvents=0;" parent="1" vertex="1">
          <mxGeometry x="520" y="610" width="300" height="200" as="geometry" />
        </mxCell>
        <mxCell id="TO6yi6P6G9DKyxrw3OD8-104" value="" style="endArrow=classic;html=1;rounded=0;exitX=0.5;exitY=0;exitDx=0;exitDy=0;entryX=0.5;entryY=1;entryDx=0;entryDy=0;" parent="1" source="TO6yi6P6G9DKyxrw3OD8-95" target="TO6yi6P6G9DKyxrw3OD8-63" edge="1">
          <mxGeometry width="50" height="50" relative="1" as="geometry">
            <mxPoint x="330" y="350" as="sourcePoint" />
            <mxPoint x="380" y="300" as="targetPoint" />
          </mxGeometry>
        </mxCell>
        <mxCell id="TO6yi6P6G9DKyxrw3OD8-105" value="Send msg based on variable boolean status" style="text;html=1;align=center;verticalAlign=middle;whiteSpace=wrap;rounded=0;" parent="1" vertex="1">
          <mxGeometry x="330" y="300" width="110" height="30" as="geometry" />
        </mxCell>
        <mxCell id="TO6yi6P6G9DKyxrw3OD8-106" value="" style="shape=cylinder3;whiteSpace=wrap;html=1;boundedLbl=1;backgroundOutline=1;size=15;" parent="1" vertex="1">
          <mxGeometry x="1120" y="190" width="60" height="80" as="geometry" />
        </mxCell>
        <mxCell id="TO6yi6P6G9DKyxrw3OD8-107" value="" style="ellipse;shape=cloud;whiteSpace=wrap;html=1;" parent="1" vertex="1">
          <mxGeometry x="960" y="210" width="80" height="50" as="geometry" />
        </mxCell>
        <mxCell id="TO6yi6P6G9DKyxrw3OD8-108" value="" style="endArrow=classic;html=1;rounded=0;entryX=0;entryY=0.5;entryDx=0;entryDy=0;entryPerimeter=0;" parent="1" edge="1">
          <mxGeometry width="50" height="50" relative="1" as="geometry">
            <mxPoint x="1050" y="229.5" as="sourcePoint" />
            <mxPoint x="1110" y="229.5" as="targetPoint" />
            <Array as="points">
              <mxPoint x="1080" y="229.5" />
            </Array>
          </mxGeometry>
        </mxCell>
        <mxCell id="TO6yi6P6G9DKyxrw3OD8-109" value="" style="endArrow=classic;html=1;rounded=0;" parent="1" edge="1">
          <mxGeometry width="50" height="50" relative="1" as="geometry">
            <mxPoint x="1110" y="250" as="sourcePoint" />
            <mxPoint x="1050" y="249.5" as="targetPoint" />
          </mxGeometry>
        </mxCell>
        <mxCell id="TO6yi6P6G9DKyxrw3OD8-110" value="Request data from Spotify API" style="text;html=1;align=center;verticalAlign=middle;whiteSpace=wrap;rounded=0;direction=south;" parent="1" vertex="1">
          <mxGeometry x="937.5" y="260" width="125" height="60" as="geometry" />
        </mxCell>
        <mxCell id="TO6yi6P6G9DKyxrw3OD8-111" value="" style="shape=cylinder3;whiteSpace=wrap;html=1;boundedLbl=1;backgroundOutline=1;size=15;" parent="1" vertex="1">
          <mxGeometry x="1120" y="310" width="60" height="80" as="geometry" />
        </mxCell>
        <mxCell id="TO6yi6P6G9DKyxrw3OD8-112" value="" style="ellipse;shape=cloud;whiteSpace=wrap;html=1;" parent="1" vertex="1">
          <mxGeometry x="960" y="330" width="80" height="50" as="geometry" />
        </mxCell>
        <mxCell id="TO6yi6P6G9DKyxrw3OD8-113" value="" style="endArrow=classic;html=1;rounded=0;entryX=0;entryY=0.5;entryDx=0;entryDy=0;entryPerimeter=0;" parent="1" edge="1">
          <mxGeometry width="50" height="50" relative="1" as="geometry">
            <mxPoint x="1050" y="349.5" as="sourcePoint" />
            <mxPoint x="1110" y="349.5" as="targetPoint" />
            <Array as="points">
              <mxPoint x="1080" y="349.5" />
            </Array>
          </mxGeometry>
        </mxCell>
        <mxCell id="TO6yi6P6G9DKyxrw3OD8-114" value="" style="endArrow=classic;html=1;rounded=0;" parent="1" edge="1">
          <mxGeometry width="50" height="50" relative="1" as="geometry">
            <mxPoint x="1110" y="370" as="sourcePoint" />
            <mxPoint x="1050" y="369.5" as="targetPoint" />
          </mxGeometry>
        </mxCell>
        <mxCell id="TO6yi6P6G9DKyxrw3OD8-115" value="Request data from Spotify API" style="text;html=1;align=center;verticalAlign=middle;whiteSpace=wrap;rounded=0;direction=south;" parent="1" vertex="1">
          <mxGeometry x="937.5" y="380" width="125" height="60" as="geometry" />
        </mxCell>
        <mxCell id="TO6yi6P6G9DKyxrw3OD8-116" value="" style="endArrow=classic;html=1;rounded=0;" parent="1" edge="1">
          <mxGeometry width="50" height="50" relative="1" as="geometry">
            <mxPoint x="890" y="230" as="sourcePoint" />
            <mxPoint x="960" y="230" as="targetPoint" />
          </mxGeometry>
        </mxCell>
        <mxCell id="TO6yi6P6G9DKyxrw3OD8-117" value="" style="endArrow=classic;html=1;rounded=0;" parent="1" edge="1">
          <mxGeometry width="50" height="50" relative="1" as="geometry">
            <mxPoint x="967.1" y="250" as="sourcePoint" />
            <mxPoint x="890" y="250" as="targetPoint" />
          </mxGeometry>
        </mxCell>
        <mxCell id="TO6yi6P6G9DKyxrw3OD8-119" value="" style="endArrow=classic;html=1;rounded=0;" parent="1" edge="1">
          <mxGeometry width="50" height="50" relative="1" as="geometry">
            <mxPoint x="887.5" y="350" as="sourcePoint" />
            <mxPoint x="950" y="350" as="targetPoint" />
          </mxGeometry>
        </mxCell>
        <mxCell id="TO6yi6P6G9DKyxrw3OD8-120" value="" style="endArrow=classic;html=1;rounded=0;" parent="1" edge="1">
          <mxGeometry width="50" height="50" relative="1" as="geometry">
            <mxPoint x="950" y="370" as="sourcePoint" />
            <mxPoint x="890" y="370" as="targetPoint" />
          </mxGeometry>
        </mxCell>
      </root>
    </mxGraphModel>
  </diagram>
  <diagram id="deHk-LJC7EPoIbVvvXSf" name="ticket lifetime spotui-py">
    <mxGraphModel dx="1430" dy="903" grid="1" gridSize="10" guides="1" tooltips="1" connect="1" arrows="1" fold="1" page="1" pageScale="1" pageWidth="1200" pageHeight="1920" math="0" shadow="0">
      <root>
        <mxCell id="0" />
        <mxCell id="1" parent="0" />
        <mxCell id="644AQPLnlskiM5yja7p5-1" value="Event Handler bundles a new message" style="rounded=1;whiteSpace=wrap;html=1;" vertex="1" parent="1">
          <mxGeometry x="540" y="190" width="120" height="60" as="geometry" />
        </mxCell>
        <mxCell id="mqCqDotWUnuyiGngpwBL-2" value="" style="edgeStyle=orthogonalEdgeStyle;rounded=0;orthogonalLoop=1;jettySize=auto;html=1;" edge="1" parent="1" source="644AQPLnlskiM5yja7p5-2" target="WlYGR_5txjQVWbjtLwn6-1">
          <mxGeometry relative="1" as="geometry" />
        </mxCell>
        <mxCell id="644AQPLnlskiM5yja7p5-2" value="Message Queue" style="swimlane;horizontal=0;whiteSpace=wrap;html=1;" vertex="1" parent="1">
          <mxGeometry x="500" y="310" width="200" height="90" as="geometry" />
        </mxCell>
        <mxCell id="mqCqDotWUnuyiGngpwBL-3" value="Message Queue" style="text;html=1;align=center;verticalAlign=middle;whiteSpace=wrap;rounded=0;" vertex="1" parent="644AQPLnlskiM5yja7p5-2">
          <mxGeometry x="70" y="30" width="60" height="30" as="geometry" />
        </mxCell>
        <mxCell id="644AQPLnlskiM5yja7p5-3" value="" style="endArrow=classic;html=1;rounded=0;entryX=0.5;entryY=0;entryDx=0;entryDy=0;" edge="1" parent="1" target="644AQPLnlskiM5yja7p5-1">
          <mxGeometry width="50" height="50" relative="1" as="geometry">
            <mxPoint x="600" y="120" as="sourcePoint" />
            <mxPoint x="650" y="70" as="targetPoint" />
          </mxGeometry>
        </mxCell>
        <mxCell id="644AQPLnlskiM5yja7p5-4" value="" style="endArrow=classic;html=1;rounded=0;entryX=0.5;entryY=0;entryDx=0;entryDy=0;" edge="1" parent="1" target="644AQPLnlskiM5yja7p5-2">
          <mxGeometry width="50" height="50" relative="1" as="geometry">
            <mxPoint x="600" y="250" as="sourcePoint" />
            <mxPoint x="650" y="200" as="targetPoint" />
          </mxGeometry>
        </mxCell>
        <mxCell id="644AQPLnlskiM5yja7p5-5" value="Message event is sent to the Event Handler" style="text;html=1;align=center;verticalAlign=middle;whiteSpace=wrap;rounded=0;" vertex="1" parent="1">
          <mxGeometry x="610" y="140" width="130" height="30" as="geometry" />
        </mxCell>
        <mxCell id="644AQPLnlskiM5yja7p5-7" value="Message is enqueued into the Message Queue" style="text;html=1;align=center;verticalAlign=middle;whiteSpace=wrap;rounded=0;" vertex="1" parent="1">
          <mxGeometry x="610" y="270" width="150" height="30" as="geometry" />
        </mxCell>
        <mxCell id="644AQPLnlskiM5yja7p5-9" value="Key event / message creation event is registered" style="whiteSpace=wrap;html=1;aspect=fixed;" vertex="1" parent="1">
          <mxGeometry x="560" y="40" width="80" height="80" as="geometry" />
        </mxCell>
        <mxCell id="50NubgJ7ED8tKyIuHqYh-1" value="" style="edgeStyle=orthogonalEdgeStyle;rounded=0;orthogonalLoop=1;jettySize=auto;html=1;" edge="1" parent="1" source="644AQPLnlskiM5yja7p5-10" target="644AQPLnlskiM5yja7p5-9">
          <mxGeometry relative="1" as="geometry" />
        </mxCell>
        <mxCell id="644AQPLnlskiM5yja7p5-10" value="User" style="shape=umlActor;verticalLabelPosition=bottom;verticalAlign=top;html=1;outlineConnect=0;" vertex="1" parent="1">
          <mxGeometry x="450" y="50" width="30" height="60" as="geometry" />
        </mxCell>
        <mxCell id="50NubgJ7ED8tKyIuHqYh-2" value="" style="edgeStyle=orthogonalEdgeStyle;rounded=0;orthogonalLoop=1;jettySize=auto;html=1;" edge="1" parent="1" source="644AQPLnlskiM5yja7p5-11" target="644AQPLnlskiM5yja7p5-9">
          <mxGeometry relative="1" as="geometry" />
        </mxCell>
        <mxCell id="644AQPLnlskiM5yja7p5-11" value="Application state&amp;nbsp;" style="rhombus;whiteSpace=wrap;html=1;" vertex="1" parent="1">
          <mxGeometry x="720" y="40" width="80" height="80" as="geometry" />
        </mxCell>
        <mxCell id="yRJ-7Xuv9_pjjy9vpFsU-2" value="" style="edgeStyle=orthogonalEdgeStyle;rounded=0;orthogonalLoop=1;jettySize=auto;html=1;" edge="1" parent="1" source="WlYGR_5txjQVWbjtLwn6-1" target="zY00RIm_Lc3474j0WZgT-1">
          <mxGeometry relative="1" as="geometry" />
        </mxCell>
        <mxCell id="WlYGR_5txjQVWbjtLwn6-1" value="Message Dispatcher" style="rounded=1;whiteSpace=wrap;html=1;" vertex="1" parent="1">
          <mxGeometry x="540" y="480" width="120" height="60" as="geometry" />
        </mxCell>
        <mxCell id="WlYGR_5txjQVWbjtLwn6-2" value="" style="endArrow=classic;startArrow=classic;html=1;rounded=0;entryX=0;entryY=0.5;entryDx=0;entryDy=0;" edge="1" parent="1" target="EjzGJcGfdXBTYzMkt1iW-1">
          <mxGeometry width="50" height="50" relative="1" as="geometry">
            <mxPoint x="660" y="510" as="sourcePoint" />
            <mxPoint x="740" y="510" as="targetPoint" />
          </mxGeometry>
        </mxCell>
        <mxCell id="EjzGJcGfdXBTYzMkt1iW-1" value="Message Handler" style="rhombus;whiteSpace=wrap;html=1;" vertex="1" parent="1">
          <mxGeometry x="750" y="470" width="80" height="80" as="geometry" />
        </mxCell>
        <mxCell id="EjzGJcGfdXBTYzMkt1iW-2" value="" style="ellipse;shape=cloud;whiteSpace=wrap;html=1;" vertex="1" parent="1">
          <mxGeometry x="890" y="470" width="120" height="80" as="geometry" />
        </mxCell>
        <mxCell id="EjzGJcGfdXBTYzMkt1iW-3" value="Spotify Api" style="shape=cylinder3;whiteSpace=wrap;html=1;boundedLbl=1;backgroundOutline=1;size=15;" vertex="1" parent="1">
          <mxGeometry x="1100" y="470" width="60" height="80" as="geometry" />
        </mxCell>
        <mxCell id="EjzGJcGfdXBTYzMkt1iW-4" value="" style="endArrow=classic;startArrow=classic;html=1;rounded=0;" edge="1" parent="1" target="EjzGJcGfdXBTYzMkt1iW-2">
          <mxGeometry width="50" height="50" relative="1" as="geometry">
            <mxPoint x="830" y="510" as="sourcePoint" />
            <mxPoint x="840" y="640" as="targetPoint" />
          </mxGeometry>
        </mxCell>
        <mxCell id="EjzGJcGfdXBTYzMkt1iW-6" value="" style="endArrow=classic;startArrow=classic;html=1;rounded=0;entryX=0;entryY=0.5;entryDx=0;entryDy=0;entryPerimeter=0;" edge="1" parent="1" target="EjzGJcGfdXBTYzMkt1iW-3">
          <mxGeometry width="50" height="50" relative="1" as="geometry">
            <mxPoint x="1000" y="510" as="sourcePoint" />
            <mxPoint x="1050" y="460" as="targetPoint" />
          </mxGeometry>
        </mxCell>
        <mxCell id="mqCqDotWUnuyiGngpwBL-1" value="Any required data is requested and recieved from the Api" style="text;html=1;align=center;verticalAlign=middle;whiteSpace=wrap;rounded=0;" vertex="1" parent="1">
          <mxGeometry x="870" y="440" width="180" height="30" as="geometry" />
        </mxCell>
        <mxCell id="mqCqDotWUnuyiGngpwBL-4" value="Next message is dequeued by the Message dispatcher" style="text;html=1;align=center;verticalAlign=middle;whiteSpace=wrap;rounded=0;" vertex="1" parent="1">
          <mxGeometry x="610" y="430" width="120" height="30" as="geometry" />
        </mxCell>
        <mxCell id="yRJ-7Xuv9_pjjy9vpFsU-3" value="" style="edgeStyle=orthogonalEdgeStyle;rounded=0;orthogonalLoop=1;jettySize=auto;html=1;" edge="1" parent="1" source="zY00RIm_Lc3474j0WZgT-1" target="zY00RIm_Lc3474j0WZgT-2">
          <mxGeometry relative="1" as="geometry" />
        </mxCell>
        <mxCell id="zY00RIm_Lc3474j0WZgT-1" value="Model builder" style="rounded=1;whiteSpace=wrap;html=1;" vertex="1" parent="1">
          <mxGeometry x="540" y="600" width="120" height="60" as="geometry" />
        </mxCell>
        <mxCell id="yRJ-7Xuv9_pjjy9vpFsU-4" value="" style="edgeStyle=orthogonalEdgeStyle;rounded=0;orthogonalLoop=1;jettySize=auto;html=1;" edge="1" parent="1" source="zY00RIm_Lc3474j0WZgT-2" target="yRJ-7Xuv9_pjjy9vpFsU-1">
          <mxGeometry relative="1" as="geometry" />
        </mxCell>
        <mxCell id="zY00RIm_Lc3474j0WZgT-2" value="Render Model" style="rounded=1;whiteSpace=wrap;html=1;" vertex="1" parent="1">
          <mxGeometry x="540" y="720" width="120" height="60" as="geometry" />
        </mxCell>
        <mxCell id="yRJ-7Xuv9_pjjy9vpFsU-1" value="App" style="shape=umlFrame;whiteSpace=wrap;html=1;pointerEvents=0;" vertex="1" parent="1">
          <mxGeometry x="750" y="650" width="300" height="200" as="geometry" />
        </mxCell>
        <mxCell id="N2B5Zjr2OiiC1UWTaTkG-1" value="Handled message is then sent to the model builder" style="text;html=1;align=center;verticalAlign=middle;whiteSpace=wrap;rounded=0;" vertex="1" parent="1">
          <mxGeometry x="420" y="560" width="140" height="30" as="geometry" />
        </mxCell>
        <mxCell id="N2B5Zjr2OiiC1UWTaTkG-3" value="A new model is then sent to the renderer and the application is re-rendered" style="text;html=1;align=center;verticalAlign=middle;whiteSpace=wrap;rounded=0;" vertex="1" parent="1">
          <mxGeometry x="390" y="680" width="150" height="30" as="geometry" />
        </mxCell>
      </root>
    </mxGraphModel>
  </diagram>
  <diagram id="phQ3OskOYqwQd09LC2Bp" name="Event Handler Spotui-py">
    <mxGraphModel dx="1430" dy="903" grid="1" gridSize="10" guides="1" tooltips="1" connect="1" arrows="1" fold="1" page="1" pageScale="1" pageWidth="1200" pageHeight="1920" math="0" shadow="0">
      <root>
        <mxCell id="0" />
        <mxCell id="1" parent="0" />
        <mxCell id="Q1h32DfBb2MUZN_gDf8k-1" value="Message Queue" style="swimlane;horizontal=0;whiteSpace=wrap;html=1;" vertex="1" parent="1">
          <mxGeometry x="850" y="760" width="270" height="120" as="geometry" />
        </mxCell>
        <mxCell id="Q1h32DfBb2MUZN_gDf8k-2" value="Message Queue" style="text;html=1;align=center;verticalAlign=middle;whiteSpace=wrap;rounded=0;" vertex="1" parent="Q1h32DfBb2MUZN_gDf8k-1">
          <mxGeometry x="105" y="45" width="60" height="30" as="geometry" />
        </mxCell>
        <mxCell id="Q1h32DfBb2MUZN_gDf8k-17" style="edgeStyle=orthogonalEdgeStyle;rounded=0;orthogonalLoop=1;jettySize=auto;html=1;entryX=0.5;entryY=0;entryDx=0;entryDy=0;" edge="1" parent="1" source="Q1h32DfBb2MUZN_gDf8k-3" target="Q1h32DfBb2MUZN_gDf8k-13">
          <mxGeometry relative="1" as="geometry" />
        </mxCell>
        <mxCell id="Q1h32DfBb2MUZN_gDf8k-3" value="Event Handler" style="rounded=1;whiteSpace=wrap;html=1;" vertex="1" parent="1">
          <mxGeometry x="520" y="400" width="120" height="60" as="geometry" />
        </mxCell>
        <mxCell id="Q1h32DfBb2MUZN_gDf8k-4" value="" style="endArrow=classic;html=1;rounded=0;entryX=0.5;entryY=0;entryDx=0;entryDy=0;" edge="1" parent="1" target="Q1h32DfBb2MUZN_gDf8k-1">
          <mxGeometry width="50" height="50" relative="1" as="geometry">
            <mxPoint x="640" y="430" as="sourcePoint" />
            <mxPoint x="1000" y="760" as="targetPoint" />
            <Array as="points">
              <mxPoint x="980" y="430" />
            </Array>
          </mxGeometry>
        </mxCell>
        <mxCell id="Q1h32DfBb2MUZN_gDf8k-7" value="" style="endArrow=classic;html=1;rounded=0;entryX=0.5;entryY=0;entryDx=0;entryDy=0;" edge="1" parent="1" target="Q1h32DfBb2MUZN_gDf8k-3">
          <mxGeometry width="50" height="50" relative="1" as="geometry">
            <mxPoint x="520" y="430" as="sourcePoint" />
            <mxPoint x="580" y="360" as="targetPoint" />
            <Array as="points">
              <mxPoint x="480" y="430" />
              <mxPoint x="480" y="360" />
              <mxPoint x="580" y="360" />
            </Array>
          </mxGeometry>
        </mxCell>
        <mxCell id="Q1h32DfBb2MUZN_gDf8k-8" value="Event Handler runs on a dedicated thread" style="text;html=1;align=center;verticalAlign=middle;whiteSpace=wrap;rounded=0;" vertex="1" parent="1">
          <mxGeometry x="450" y="320" width="150" height="30" as="geometry" />
        </mxCell>
        <mxCell id="Q1h32DfBb2MUZN_gDf8k-11" style="edgeStyle=orthogonalEdgeStyle;rounded=0;orthogonalLoop=1;jettySize=auto;html=1;entryX=0;entryY=0.75;entryDx=0;entryDy=0;" edge="1" parent="1" source="Q1h32DfBb2MUZN_gDf8k-10" target="Q1h32DfBb2MUZN_gDf8k-3">
          <mxGeometry relative="1" as="geometry" />
        </mxCell>
        <mxCell id="Q1h32DfBb2MUZN_gDf8k-10" value="Keylogger var defaults to &quot;val&quot;" style="whiteSpace=wrap;html=1;aspect=fixed;" vertex="1" parent="1">
          <mxGeometry x="260" y="440" width="80" height="80" as="geometry" />
        </mxCell>
        <mxCell id="Q1h32DfBb2MUZN_gDf8k-12" value="The Event Handler checks the keylogger val every iteration and creates a new message if var != val" style="text;html=1;align=center;verticalAlign=middle;whiteSpace=wrap;rounded=0;" vertex="1" parent="1">
          <mxGeometry x="350" y="510" width="190" height="30" as="geometry" />
        </mxCell>
        <mxCell id="Q1h32DfBb2MUZN_gDf8k-13" value="Application State" style="swimlane;fontStyle=0;childLayout=stackLayout;horizontal=1;startSize=30;horizontalStack=0;resizeParent=1;resizeParentMax=0;resizeLast=0;collapsible=1;marginBottom=0;whiteSpace=wrap;html=1;" vertex="1" parent="1">
          <mxGeometry x="510" y="600" width="140" height="120" as="geometry" />
        </mxCell>
        <mxCell id="Q1h32DfBb2MUZN_gDf8k-14" value="Item 1" style="text;strokeColor=none;fillColor=none;align=left;verticalAlign=middle;spacingLeft=4;spacingRight=4;overflow=hidden;points=[[0,0.5],[1,0.5]];portConstraint=eastwest;rotatable=0;whiteSpace=wrap;html=1;" vertex="1" parent="Q1h32DfBb2MUZN_gDf8k-13">
          <mxGeometry y="30" width="140" height="30" as="geometry" />
        </mxCell>
        <mxCell id="Q1h32DfBb2MUZN_gDf8k-15" value="Item 2" style="text;strokeColor=none;fillColor=none;align=left;verticalAlign=middle;spacingLeft=4;spacingRight=4;overflow=hidden;points=[[0,0.5],[1,0.5]];portConstraint=eastwest;rotatable=0;whiteSpace=wrap;html=1;" vertex="1" parent="Q1h32DfBb2MUZN_gDf8k-13">
          <mxGeometry y="60" width="140" height="30" as="geometry" />
        </mxCell>
        <mxCell id="Q1h32DfBb2MUZN_gDf8k-16" value="Item 3" style="text;strokeColor=none;fillColor=none;align=left;verticalAlign=middle;spacingLeft=4;spacingRight=4;overflow=hidden;points=[[0,0.5],[1,0.5]];portConstraint=eastwest;rotatable=0;whiteSpace=wrap;html=1;" vertex="1" parent="Q1h32DfBb2MUZN_gDf8k-13">
          <mxGeometry y="90" width="140" height="30" as="geometry" />
        </mxCell>
        <mxCell id="Q1h32DfBb2MUZN_gDf8k-18" value="Event Handler checks the Application State for variables like &quot;Is_playing&quot; and creates messages accordingly" style="text;html=1;align=center;verticalAlign=middle;whiteSpace=wrap;rounded=0;" vertex="1" parent="1">
          <mxGeometry x="590" y="510" width="210" height="30" as="geometry" />
        </mxCell>
      </root>
    </mxGraphModel>
  </diagram>
  <diagram id="N-DmZ6_Rs6xjhMlKSr58" name="Page Viewer">
    <mxGraphModel dx="2360" dy="1010" grid="1" gridSize="10" guides="1" tooltips="1" connect="1" arrows="1" fold="1" page="1" pageScale="1" pageWidth="1200" pageHeight="1920" math="0" shadow="0">
      <root>
        <mxCell id="0" />
        <mxCell id="1" parent="0" />
        <mxCell id="e6dSVWlGj5uk0rUQJFgj-3" value="Page History is an array that tracks previous application states" style="swimlane;whiteSpace=wrap;html=1;startSize=60;" vertex="1" parent="1">
          <mxGeometry x="10" y="10" width="200" height="250" as="geometry" />
        </mxCell>
        <mxCell id="e6dSVWlGj5uk0rUQJFgj-4" value="State 1" style="text;html=1;align=center;verticalAlign=middle;whiteSpace=wrap;rounded=0;" vertex="1" parent="e6dSVWlGj5uk0rUQJFgj-3">
          <mxGeometry x="10" y="70" width="60" height="30" as="geometry" />
        </mxCell>
        <mxCell id="e6dSVWlGj5uk0rUQJFgj-6" value="State 2" style="text;html=1;align=center;verticalAlign=middle;whiteSpace=wrap;rounded=0;" vertex="1" parent="e6dSVWlGj5uk0rUQJFgj-3">
          <mxGeometry x="10" y="110" width="60" height="30" as="geometry" />
        </mxCell>
        <mxCell id="e6dSVWlGj5uk0rUQJFgj-7" value="State 3" style="text;html=1;align=center;verticalAlign=middle;whiteSpace=wrap;rounded=0;" vertex="1" parent="e6dSVWlGj5uk0rUQJFgj-3">
          <mxGeometry x="10" y="160" width="60" height="30" as="geometry" />
        </mxCell>
        <mxCell id="e6dSVWlGj5uk0rUQJFgj-1" value="" style="shape=cylinder3;whiteSpace=wrap;html=1;boundedLbl=1;backgroundOutline=1;size=15;" vertex="1" parent="e6dSVWlGj5uk0rUQJFgj-3">
          <mxGeometry x="110" y="85" width="60" height="80" as="geometry" />
        </mxCell>
        <mxCell id="e6dSVWlGj5uk0rUQJFgj-2" value="Page History" style="text;html=1;align=center;verticalAlign=middle;whiteSpace=wrap;rounded=0;" vertex="1" parent="e6dSVWlGj5uk0rUQJFgj-3">
          <mxGeometry x="110" y="125" width="60" height="30" as="geometry" />
        </mxCell>
        <mxCell id="e6dSVWlGj5uk0rUQJFgj-10" value="" style="edgeStyle=orthogonalEdgeStyle;rounded=0;orthogonalLoop=1;jettySize=auto;html=1;" edge="1" parent="1" source="e6dSVWlGj5uk0rUQJFgj-8" target="e6dSVWlGj5uk0rUQJFgj-9">
          <mxGeometry relative="1" as="geometry" />
        </mxCell>
        <mxCell id="e6dSVWlGj5uk0rUQJFgj-8" value="Query Page Loaded" style="rounded=0;whiteSpace=wrap;html=1;" vertex="1" parent="1">
          <mxGeometry x="230" y="10" width="120" height="60" as="geometry" />
        </mxCell>
        <mxCell id="e6dSVWlGj5uk0rUQJFgj-12" value="" style="edgeStyle=orthogonalEdgeStyle;rounded=0;orthogonalLoop=1;jettySize=auto;html=1;" edge="1" parent="1" source="e6dSVWlGj5uk0rUQJFgj-9" target="e6dSVWlGj5uk0rUQJFgj-11">
          <mxGeometry relative="1" as="geometry" />
        </mxCell>
        <mxCell id="e6dSVWlGj5uk0rUQJFgj-9" value="Artist Page Loaded" style="rounded=0;whiteSpace=wrap;html=1;" vertex="1" parent="1">
          <mxGeometry x="230" y="130" width="120" height="60" as="geometry" />
        </mxCell>
        <mxCell id="e6dSVWlGj5uk0rUQJFgj-14" value="" style="edgeStyle=orthogonalEdgeStyle;rounded=0;orthogonalLoop=1;jettySize=auto;html=1;" edge="1" parent="1" source="e6dSVWlGj5uk0rUQJFgj-11" target="e6dSVWlGj5uk0rUQJFgj-13">
          <mxGeometry relative="1" as="geometry" />
        </mxCell>
        <mxCell id="e6dSVWlGj5uk0rUQJFgj-11" value="Album Page Loaded" style="rounded=0;whiteSpace=wrap;html=1;" vertex="1" parent="1">
          <mxGeometry x="230" y="230" width="120" height="60" as="geometry" />
        </mxCell>
        <mxCell id="e6dSVWlGj5uk0rUQJFgj-13" value="About Album Page Loaded" style="rounded=0;whiteSpace=wrap;html=1;" vertex="1" parent="1">
          <mxGeometry x="230" y="380" width="120" height="60" as="geometry" />
        </mxCell>
        <mxCell id="e6dSVWlGj5uk0rUQJFgj-15" value="" style="shape=umlDestroy;whiteSpace=wrap;html=1;strokeWidth=3;targetShapes=umlLifeline;" vertex="1" parent="1">
          <mxGeometry x="275" y="320" width="30" height="30" as="geometry" />
        </mxCell>
        <mxCell id="e6dSVWlGj5uk0rUQJFgj-16" value="" style="endArrow=classic;html=1;rounded=0;entryX=0.5;entryY=1;entryDx=0;entryDy=0;exitX=0.5;exitY=0;exitDx=0;exitDy=0;" edge="1" parent="1" source="e6dSVWlGj5uk0rUQJFgj-13" target="e6dSVWlGj5uk0rUQJFgj-11">
          <mxGeometry width="50" height="50" relative="1" as="geometry">
            <mxPoint x="320" y="380" as="sourcePoint" />
            <mxPoint x="370" y="330" as="targetPoint" />
          </mxGeometry>
        </mxCell>
        <mxCell id="e6dSVWlGj5uk0rUQJFgj-17" value="" style="endArrow=classic;html=1;rounded=0;entryX=0.5;entryY=1;entryDx=0;entryDy=0;exitX=0.5;exitY=0;exitDx=0;exitDy=0;" edge="1" parent="1" source="e6dSVWlGj5uk0rUQJFgj-11" target="e6dSVWlGj5uk0rUQJFgj-9">
          <mxGeometry width="50" height="50" relative="1" as="geometry">
            <mxPoint x="320" y="230" as="sourcePoint" />
            <mxPoint x="370" y="180" as="targetPoint" />
          </mxGeometry>
        </mxCell>
        <mxCell id="e6dSVWlGj5uk0rUQJFgj-18" value="" style="endArrow=classic;html=1;rounded=0;" edge="1" parent="1">
          <mxGeometry width="50" height="50" relative="1" as="geometry">
            <mxPoint x="290" y="126" as="sourcePoint" />
            <mxPoint x="290" y="70" as="targetPoint" />
          </mxGeometry>
        </mxCell>
        <mxCell id="e6dSVWlGj5uk0rUQJFgj-19" value="The History can be traversed bidirectionaly until a new descision is made. In this case the future history of the application is severed." style="text;html=1;align=center;verticalAlign=middle;whiteSpace=wrap;rounded=0;" vertex="1" parent="1">
          <mxGeometry x="320" y="325" width="220" height="20" as="geometry" />
        </mxCell>
        <mxCell id="e6dSVWlGj5uk0rUQJFgj-25" value="" style="edgeStyle=orthogonalEdgeStyle;rounded=0;orthogonalLoop=1;jettySize=auto;html=1;" edge="1" parent="1" source="e6dSVWlGj5uk0rUQJFgj-21" target="e6dSVWlGj5uk0rUQJFgj-24">
          <mxGeometry relative="1" as="geometry" />
        </mxCell>
        <mxCell id="e6dSVWlGj5uk0rUQJFgj-21" value="Related Artist Page Loaded" style="rounded=0;whiteSpace=wrap;html=1;" vertex="1" parent="1">
          <mxGeometry x="70" y="380" width="120" height="60" as="geometry" />
        </mxCell>
        <mxCell id="e6dSVWlGj5uk0rUQJFgj-22" value="" style="endArrow=classic;html=1;rounded=0;entryX=0.5;entryY=0;entryDx=0;entryDy=0;" edge="1" parent="1" target="e6dSVWlGj5uk0rUQJFgj-21">
          <mxGeometry width="50" height="50" relative="1" as="geometry">
            <mxPoint x="290" y="290" as="sourcePoint" />
            <mxPoint x="340" y="240" as="targetPoint" />
          </mxGeometry>
        </mxCell>
        <mxCell id="e6dSVWlGj5uk0rUQJFgj-23" value="After a seversed timeline a new history is started with any previous Nodes left intact." style="text;html=1;align=center;verticalAlign=middle;whiteSpace=wrap;rounded=0;" vertex="1" parent="1">
          <mxGeometry x="20" y="300" width="190" height="30" as="geometry" />
        </mxCell>
        <mxCell id="e6dSVWlGj5uk0rUQJFgj-27" value="" style="edgeStyle=orthogonalEdgeStyle;rounded=0;orthogonalLoop=1;jettySize=auto;html=1;" edge="1" parent="1" source="e6dSVWlGj5uk0rUQJFgj-24" target="e6dSVWlGj5uk0rUQJFgj-26">
          <mxGeometry relative="1" as="geometry" />
        </mxCell>
        <mxCell id="e6dSVWlGj5uk0rUQJFgj-24" value="Album Page Loaded" style="rounded=0;whiteSpace=wrap;html=1;" vertex="1" parent="1">
          <mxGeometry x="70" y="500" width="120" height="60" as="geometry" />
        </mxCell>
        <mxCell id="e6dSVWlGj5uk0rUQJFgj-26" value="Track Played" style="rounded=0;whiteSpace=wrap;html=1;" vertex="1" parent="1">
          <mxGeometry x="70" y="630" width="120" height="60" as="geometry" />
        </mxCell>
        <mxCell id="e6dSVWlGj5uk0rUQJFgj-28" value="" style="endArrow=classic;html=1;rounded=0;entryX=0.5;entryY=1;entryDx=0;entryDy=0;" edge="1" parent="1" target="e6dSVWlGj5uk0rUQJFgj-21">
          <mxGeometry width="50" height="50" relative="1" as="geometry">
            <mxPoint x="130" y="500" as="sourcePoint" />
            <mxPoint x="180" y="450" as="targetPoint" />
          </mxGeometry>
        </mxCell>
        <mxCell id="e6dSVWlGj5uk0rUQJFgj-29" value="" style="endArrow=classic;html=1;rounded=0;entryX=0.5;entryY=1;entryDx=0;entryDy=0;" edge="1" parent="1" target="e6dSVWlGj5uk0rUQJFgj-24">
          <mxGeometry width="50" height="50" relative="1" as="geometry">
            <mxPoint x="130" y="630" as="sourcePoint" />
            <mxPoint x="180" y="580" as="targetPoint" />
          </mxGeometry>
        </mxCell>
        <mxCell id="e6dSVWlGj5uk0rUQJFgj-30" value="" style="endArrow=classic;html=1;rounded=0;entryX=0.5;entryY=1;entryDx=0;entryDy=0;" edge="1" parent="1" target="e6dSVWlGj5uk0rUQJFgj-11">
          <mxGeometry width="50" height="50" relative="1" as="geometry">
            <mxPoint x="130" y="380" as="sourcePoint" />
            <mxPoint x="180" y="330" as="targetPoint" />
          </mxGeometry>
        </mxCell>
      </root>
    </mxGraphModel>
  </diagram>
</mxfile>
